<mxfile host="65bd71144e">
    <diagram name="Page-1" id="Yp3i7KCPn6l834cxxweI">
        <mxGraphModel dx="1136" dy="607" grid="1" gridSize="10" guides="1" tooltips="1" connect="1" arrows="1" fold="1" page="1" pageScale="1" pageWidth="850" pageHeight="1100" math="0" shadow="0">
            <root>
                <mxCell id="0"/>
                <mxCell id="1" parent="0"/>
                <mxCell id="HrNwgE48LUL9wqBBlE---3" value="" style="edgeStyle=orthogonalEdgeStyle;rounded=0;orthogonalLoop=1;jettySize=auto;html=1;" parent="1" source="HrNwgE48LUL9wqBBlE---1" target="HrNwgE48LUL9wqBBlE---2" edge="1">
                    <mxGeometry relative="1" as="geometry"/>
                </mxCell>
                <mxCell id="HrNwgE48LUL9wqBBlE---1" value="Start" style="rounded=1;whiteSpace=wrap;html=1;" parent="1" vertex="1">
                    <mxGeometry x="40" y="40" width="70" height="30" as="geometry"/>
                </mxCell>
                <mxCell id="HrNwgE48LUL9wqBBlE---6" value="" style="edgeStyle=orthogonalEdgeStyle;rounded=0;orthogonalLoop=1;jettySize=auto;html=1;entryX=0.5;entryY=0;entryDx=0;entryDy=0;" parent="1" source="HrNwgE48LUL9wqBBlE---2" target="2" edge="1">
                    <mxGeometry relative="1" as="geometry"/>
                </mxCell>
                <mxCell id="HrNwgE48LUL9wqBBlE---2" value="&lt;div&gt;&quot;Input the number of items&quot;&lt;/div&gt;" style="shape=parallelogram;perimeter=parallelogramPerimeter;whiteSpace=wrap;html=1;fixedSize=1;" parent="1" vertex="1">
                    <mxGeometry x="40" y="100" width="180" height="40" as="geometry"/>
                </mxCell>
                <mxCell id="9" value="" style="edgeStyle=none;html=1;" edge="1" parent="1" source="HrNwgE48LUL9wqBBlE---4" target="7">
                    <mxGeometry relative="1" as="geometry"/>
                </mxCell>
                <mxCell id="HrNwgE48LUL9wqBBlE---4" value="&lt;div&gt;&quot;Input cost of item&quot; + Y&lt;/div&gt;" style="shape=parallelogram;perimeter=parallelogramPerimeter;whiteSpace=wrap;html=1;fixedSize=1;" parent="1" vertex="1">
                    <mxGeometry x="52.5" y="280" width="155" height="40" as="geometry"/>
                </mxCell>
                <mxCell id="HrNwgE48LUL9wqBBlE---7" value="" style="edgeStyle=orthogonalEdgeStyle;rounded=0;orthogonalLoop=1;jettySize=auto;html=1;" parent="1" source="HrNwgE48LUL9wqBBlE---5" target="HrNwgE48LUL9wqBBlE---4" edge="1">
                    <mxGeometry relative="1" as="geometry"/>
                </mxCell>
                <mxCell id="HrNwgE48LUL9wqBBlE---5" value="&lt;div&gt;Y=1&lt;/div&gt;total=0" style="whiteSpace=wrap;html=1;" parent="1" vertex="1">
                    <mxGeometry x="77.5" y="220" width="105" height="30" as="geometry"/>
                </mxCell>
                <mxCell id="HrNwgE48LUL9wqBBlE---11" value="" style="edgeStyle=orthogonalEdgeStyle;rounded=0;orthogonalLoop=1;jettySize=auto;html=1;entryX=0;entryY=0.5;entryDx=0;entryDy=0;" parent="1" source="HrNwgE48LUL9wqBBlE---8" target="HrNwgE48LUL9wqBBlE---10" edge="1">
                    <mxGeometry relative="1" as="geometry">
                        <Array as="points"/>
                    </mxGeometry>
                </mxCell>
                <mxCell id="HrNwgE48LUL9wqBBlE---8" value="&lt;div&gt;Y=Y+1&lt;/div&gt;" style="whiteSpace=wrap;html=1;" parent="1" vertex="1">
                    <mxGeometry x="77.5" y="390" width="105" height="30" as="geometry"/>
                </mxCell>
                <mxCell id="HrNwgE48LUL9wqBBlE---13" value="" style="edgeStyle=orthogonalEdgeStyle;rounded=0;orthogonalLoop=1;jettySize=auto;html=1;entryX=1;entryY=0.5;entryDx=0;entryDy=0;" parent="1" source="HrNwgE48LUL9wqBBlE---10" target="HrNwgE48LUL9wqBBlE---4" edge="1">
                    <mxGeometry relative="1" as="geometry">
                        <mxPoint x="255" y="460" as="targetPoint"/>
                        <Array as="points">
                            <mxPoint x="230" y="460"/>
                            <mxPoint x="230" y="300"/>
                        </Array>
                    </mxGeometry>
                </mxCell>
                <mxCell id="HrNwgE48LUL9wqBBlE---14" value="False" style="edgeLabel;html=1;align=center;verticalAlign=middle;resizable=0;points=[];" parent="HrNwgE48LUL9wqBBlE---13" vertex="1" connectable="0">
                    <mxGeometry x="-0.7191" y="2" relative="1" as="geometry">
                        <mxPoint as="offset"/>
                    </mxGeometry>
                </mxCell>
                <mxCell id="HrNwgE48LUL9wqBBlE---16" value="True" style="edgeStyle=orthogonalEdgeStyle;rounded=0;orthogonalLoop=1;jettySize=auto;html=1;entryX=0.558;entryY=0.017;entryDx=0;entryDy=0;entryPerimeter=0;" parent="1" source="HrNwgE48LUL9wqBBlE---10" target="HrNwgE48LUL9wqBBlE---17" edge="1">
                    <mxGeometry relative="1" as="geometry">
                        <mxPoint x="190" y="540" as="targetPoint"/>
                    </mxGeometry>
                </mxCell>
                <mxCell id="HrNwgE48LUL9wqBBlE---10" value="Y&amp;gt;X" style="rhombus;whiteSpace=wrap;html=1;" parent="1" vertex="1">
                    <mxGeometry x="127.5" y="430" width="80" height="80" as="geometry"/>
                </mxCell>
                <mxCell id="HrNwgE48LUL9wqBBlE---15" value="End" style="rounded=1;whiteSpace=wrap;html=1;" parent="1" vertex="1">
                    <mxGeometry x="67.5" y="640" width="120" height="60" as="geometry"/>
                </mxCell>
                <mxCell id="HrNwgE48LUL9wqBBlE---18" value="" style="edgeStyle=orthogonalEdgeStyle;rounded=0;orthogonalLoop=1;jettySize=auto;html=1;" parent="1" source="HrNwgE48LUL9wqBBlE---17" target="HrNwgE48LUL9wqBBlE---15" edge="1">
                    <mxGeometry relative="1" as="geometry"/>
                </mxCell>
                <mxCell id="HrNwgE48LUL9wqBBlE---17" value="&lt;div&gt;&quot;Total cost is&quot; total&lt;br&gt;&lt;/div&gt;" style="shape=parallelogram;perimeter=parallelogramPerimeter;whiteSpace=wrap;html=1;fixedSize=1;" parent="1" vertex="1">
                    <mxGeometry x="61.25" y="550" width="132.5" height="60" as="geometry"/>
                </mxCell>
                <mxCell id="4" value="" style="edgeStyle=none;html=1;" edge="1" parent="1" source="2" target="HrNwgE48LUL9wqBBlE---5">
                    <mxGeometry relative="1" as="geometry"/>
                </mxCell>
                <mxCell id="2" value="Input=X" style="shape=parallelogram;perimeter=parallelogramPerimeter;whiteSpace=wrap;html=1;fixedSize=1;" vertex="1" parent="1">
                    <mxGeometry x="81.25" y="170" width="97.5" height="30" as="geometry"/>
                </mxCell>
                <mxCell id="11" value="" style="edgeStyle=none;html=1;entryX=0.5;entryY=0;entryDx=0;entryDy=0;" edge="1" parent="1" source="7" target="HrNwgE48LUL9wqBBlE---8">
                    <mxGeometry relative="1" as="geometry">
                        <mxPoint x="133" y="422" as="targetPoint"/>
                    </mxGeometry>
                </mxCell>
                <mxCell id="7" value="total=total+input" style="shape=parallelogram;perimeter=parallelogramPerimeter;whiteSpace=wrap;html=1;fixedSize=1;" vertex="1" parent="1">
                    <mxGeometry x="70" y="340" width="120" height="30" as="geometry"/>
                </mxCell>
            </root>
        </mxGraphModel>
    </diagram>
</mxfile>